<?xml version="1.0" standalone="no"?>
<!DOCTYPE svg PUBLIC "-//W3C//DTD SVG 20010904//EN"
 "http://www.w3.org/TR/2001/REC-SVG-20010904/DTD/svg10.dtd">
<svg version="1.0" xmlns="http://www.w3.org/2000/svg"
 width="1024.000000pt" height="1024.000000pt" viewBox="0 0 1024.000000 1024.000000"
 preserveAspectRatio="xMidYMid meet">

<g transform="translate(0.000000,1024.000000) scale(0.100000,-0.100000)"
fill="#000000" stroke="none">
<path d="M5293 8323 c-29 -2 -53 -8 -53 -13 0 -15 103 -133 162 -186 29 -27
74 -70 101 -97 l47 -49 0 -347 0 -347 -37 -20 c-219 -118 -393 -214 -473 -261
-194 -115 -259 -155 -313 -195 -33 -24 -85 -61 -117 -83 -126 -87 -293 -218
-401 -315 -9 -8 -34 -29 -55 -47 -206 -168 -316 -267 -513 -464 -193 -193
-516 -532 -626 -659 -22 -25 -55 -60 -75 -77 l-35 -33 55 -50 c117 -108 137
-124 193 -163 48 -33 63 -38 91 -33 54 10 112 65 164 152 49 84 87 138 132
189 115 129 236 249 340 340 30 26 89 80 131 119 119 111 171 158 223 201 26
22 74 64 106 93 32 29 76 66 97 83 21 16 81 62 133 103 52 41 96 71 98 66 2
-5 11 -6 20 -3 12 4 10 -2 -8 -23 -14 -16 -43 -54 -64 -84 -123 -180 -450
-532 -908 -978 -32 -31 -58 -59 -58 -63 0 -3 -32 -34 -71 -68 l-70 -61 43 -1
c41 -1 42 -1 18 -12 -14 -7 -43 -24 -66 -39 -22 -14 -82 -47 -132 -72 -51 -25
-92 -48 -92 -49 0 -6 126 11 170 23 50 13 121 75 141 122 6 15 15 28 20 28 5
0 23 15 42 33 95 92 123 108 382 233 55 26 119 61 142 76 23 15 46 28 51 28 5
0 28 14 51 30 22 17 70 46 105 64 191 101 554 387 725 570 20 21 61 64 91 96
30 32 66 74 80 94 14 20 42 58 63 84 26 32 36 54 33 68 -4 13 1 28 13 38 11
10 22 29 26 43 3 14 10 22 14 17 14 -17 32 -111 25 -138 -3 -14 -2 -32 4 -39
17 -20 17 -164 0 -252 -15 -82 -37 -134 -82 -194 -51 -68 -227 -239 -356 -347
-19 -16 -42 -36 -50 -44 -9 -8 -38 -34 -66 -56 -145 -122 -198 -164 -253 -205
-34 -24 -96 -70 -138 -101 -42 -31 -96 -66 -120 -79 -24 -12 -48 -28 -54 -36
-6 -7 -16 -13 -21 -13 -5 0 -24 -11 -42 -25 -18 -14 -36 -25 -39 -25 -3 0 -28
-13 -55 -29 -27 -16 -60 -32 -73 -36 -13 -4 -78 -34 -144 -65 -66 -32 -138
-63 -160 -70 -22 -7 -76 -30 -120 -50 -44 -20 -152 -59 -240 -85 -88 -26 -212
-63 -275 -83 -63 -20 -119 -37 -125 -39 -5 -1 -81 -20 -168 -42 -87 -23 -161
-41 -164 -41 -3 0 0 7 7 15 7 8 18 15 24 15 7 0 48 18 92 41 108 56 219 99
252 99 16 0 32 4 38 9 10 10 261 94 315 106 19 4 39 11 44 15 6 4 26 13 45 18
50 15 130 45 240 87 52 20 124 48 160 61 36 14 79 31 97 39 17 8 33 15 36 15
12 0 118 53 114 57 -3 2 -19 -3 -37 -12 -40 -20 -204 -75 -226 -75 -8 0 -80
-15 -157 -34 -184 -44 -262 -59 -317 -62 -75 -3 -192 -25 -214 -39 -12 -8 -43
-19 -71 -26 -27 -7 -90 -31 -140 -54 -49 -24 -103 -45 -118 -49 l-29 -7 23 33
c35 49 206 216 229 223 27 9 25 16 -15 45 -18 14 -70 55 -115 93 -45 37 -91
67 -101 67 -10 0 -24 9 -31 20 -7 11 -15 20 -18 20 -8 0 -460 -446 -460 -454
0 -3 3 -5 8 -4 22 6 122 -17 155 -35 45 -25 80 -89 70 -128 -13 -47 -43 -86
-99 -125 -30 -21 -80 -57 -109 -79 -30 -22 -82 -58 -117 -79 -35 -22 -106 -68
-159 -103 -53 -34 -105 -66 -115 -69 -11 -4 -39 -22 -64 -39 -40 -28 -99 -64
-220 -133 -19 -11 -73 -42 -120 -69 -47 -27 -125 -71 -175 -97 -49 -27 -101
-56 -115 -65 -48 -32 -938 -471 -1107 -546 -50 -22 -69 -37 -98 -79 -34 -50
-38 -52 -75 -49 l-40 3 0 -51 c0 -44 5 -57 39 -97 21 -26 48 -67 59 -92 12
-25 36 -60 52 -77 35 -38 74 -42 170 -19 61 15 169 66 189 90 11 14 292 156
462 235 36 16 105 48 153 71 48 22 89 40 92 40 3 0 31 12 62 26 31 14 66 30
77 34 11 5 65 29 120 53 55 25 138 58 185 75 47 16 110 41 140 54 68 30 109
46 235 93 55 21 132 50 170 65 39 15 90 33 115 40 25 7 74 23 110 35 87 30
241 79 315 100 33 9 80 23 105 30 104 31 251 64 335 75 84 10 98 9 210 -16
164 -37 215 -49 320 -77 50 -14 153 -41 230 -61 254 -65 522 -159 585 -205 62
-46 158 -124 253 -206 51 -44 108 -92 127 -107 19 -14 55 -45 80 -68 25 -23
61 -54 80 -68 19 -15 40 -32 45 -38 6 -6 57 -49 115 -94 58 -46 125 -100 150
-120 25 -20 77 -58 115 -83 64 -43 126 -110 113 -123 -3 -3 -36 16 -74 42 -99
68 -168 100 -280 130 -87 23 -111 25 -199 21 -55 -4 -113 -9 -130 -12 -24 -4
-26 -3 -10 4 l20 10 -20 0 c-24 1 -108 -23 -150 -43 -62 -29 -229 -96 -232
-93 -1 2 18 16 44 33 39 24 43 30 25 32 -11 2 -30 -2 -41 -7 -11 -6 -29 -11
-40 -11 -40 0 -295 -152 -280 -167 6 -6 -2 -23 -24 -47 -19 -20 -40 -48 -47
-61 -15 -28 -4 -50 11 -22 6 9 15 14 21 11 6 -4 13 -2 17 3 3 5 23 17 43 26
20 10 43 23 50 30 44 41 208 97 283 97 27 -1 28 -2 12 -14 -9 -7 -36 -16 -58
-20 -36 -6 -106 -31 -148 -54 -8 -5 -15 -16 -17 -25 -3 -24 35 -22 169 9 l112
26 355 -5 c195 -3 400 -10 455 -16 55 -5 141 -12 190 -16 50 -3 117 -10 150
-15 33 -5 107 -14 165 -20 58 -6 137 -17 175 -25 39 -8 114 -19 169 -25 54 -6
104 -14 110 -18 6 -3 13 -7 16 -7 3 -1 23 -6 45 -13 22 -6 74 -18 115 -27 127
-26 294 -68 340 -87 14 -5 63 -21 110 -34 47 -14 108 -33 135 -43 28 -10 88
-31 135 -45 47 -15 94 -31 105 -36 19 -8 70 -24 168 -53 37 -11 47 -12 47 -2
0 21 -31 50 -105 101 -38 26 -91 65 -118 87 -56 46 -91 70 -170 117 -32 19
-66 40 -75 45 -10 6 -39 23 -67 40 -27 16 -63 39 -80 51 -31 23 -218 114 -233
114 -5 0 -20 8 -33 19 -13 10 -54 28 -90 39 -101 31 -137 48 -143 70 -4 10
-18 24 -32 31 -31 14 -41 9 -19 -9 8 -7 15 -19 15 -26 0 -11 -8 -11 -42 2 -93
34 -118 48 -134 71 -14 22 -20 24 -57 17 -51 -9 -106 -7 -121 5 -6 5 -30 14
-53 20 -33 9 -43 17 -43 32 0 18 -3 17 -24 -8 -30 -35 -46 -24 -20 14 29 44
103 202 126 268 11 33 25 66 30 73 19 23 -2 26 -40 7 -54 -29 -121 -99 -176
-185 -75 -117 -77 -119 -139 -108 -28 6 -90 29 -137 51 -67 33 -105 62 -184
137 -119 114 -315 335 -350 394 -44 75 -43 88 7 132 25 21 75 52 113 68 38 16
110 48 159 71 50 24 149 69 220 101 72 33 175 84 230 115 55 30 109 58 119 62
73 28 426 256 526 339 88 73 194 177 244 238 111 137 233 357 281 510 15 47
34 103 42 125 8 22 30 96 48 165 18 69 44 166 59 215 15 50 44 158 66 240 84
326 101 389 106 397 3 4 14 41 25 81 11 39 31 97 45 127 104 221 129 322 128
505 0 160 -34 354 -79 465 -13 30 -26 66 -30 80 -16 54 -107 234 -125 247 -11
8 -20 20 -20 28 0 26 -132 190 -218 272 -48 46 -107 93 -132 105 -25 12 -69
36 -98 55 -29 18 -55 33 -58 33 -3 0 -36 13 -72 29 -153 67 -281 86 -672 101
-151 6 -284 12 -295 13 -25 3 -31 -25 -12 -66 8 -18 21 -49 28 -71 8 -22 35
-58 64 -85 28 -25 66 -66 85 -91 19 -24 48 -55 64 -69 15 -13 34 -30 40 -37
21 -21 206 -113 206 -102 0 5 -13 15 -30 21 -16 6 -30 15 -30 19 0 8 20 2 60
-19 19 -10 26 -10 32 0 13 20 -29 46 -73 45 -22 0 -46 5 -52 12 -10 10 12 11
105 8 92 -4 115 -3 111 8 -2 7 5 18 17 24 19 10 20 14 7 28 -8 9 -17 25 -20
34 -4 11 -20 18 -44 21 -34 3 -33 4 11 5 42 2 55 -2 78 -25 l28 -27 0 37 0 38
53 -7 c28 -4 57 -8 62 -9 27 -6 106 -48 140 -75 21 -16 43 -30 50 -30 13 0 60
-55 108 -125 14 -22 38 -54 53 -72 l26 -32 -39 19 c-52 25 -98 36 -89 22 3 -6
19 -13 34 -17 41 -9 215 -195 198 -212 -3 -4 -25 11 -49 33 -99 92 -114 105
-159 142 -63 50 -222 129 -278 138 l-45 6 54 -33 c52 -32 82 -69 127 -157 9
-18 25 -39 36 -46 12 -9 16 -19 11 -31 -5 -15 -3 -17 11 -12 9 4 15 3 12 -2
-3 -4 3 -16 13 -25 10 -9 33 -48 51 -87 32 -69 32 -73 28 -182 -3 -81 -9 -122
-22 -147 -20 -39 -45 -70 -56 -70 -7 0 -42 80 -54 125 -5 17 -15 20 -68 21
-35 0 -79 8 -98 17 -19 8 -52 21 -72 28 -24 8 -41 22 -48 39 -16 38 -61 76
-100 85 -34 7 -100 40 -187 91 -31 18 -43 32 -43 48 0 13 -13 40 -30 61 -16
21 -30 42 -30 48 0 6 -9 20 -19 31 -21 23 -111 198 -111 217 0 17 -82 150
-131 212 -23 28 -68 76 -100 105 -32 29 -61 62 -65 74 -3 12 -21 36 -38 52
-17 17 -45 52 -63 78 -51 75 -90 90 -210 81z m787 -543 c0 -5 -2 -10 -4 -10
-3 0 -8 5 -11 10 -3 6 -1 10 4 10 6 0 11 -4 11 -10z m65 -38 c-3 -3 -11 0 -18
7 -9 10 -8 11 6 5 10 -3 15 -9 12 -12z m644 -206 c14 -8 31 -12 38 -9 7 3 16
-3 20 -13 3 -11 32 -43 62 -71 56 -53 60 -76 5 -28 -16 14 -43 35 -61 46 -17
10 -34 26 -37 34 -3 8 -12 15 -19 15 -8 0 -22 9 -32 20 -21 23 -11 25 24 6z
m-1225 -328 c3 -13 7 -43 10 -68 10 -101 67 -442 76 -458 9 -17 38 -143 48
-211 9 -61 -21 -29 -35 37 -23 114 -135 303 -237 401 -20 19 -36 42 -36 50 0
9 12 36 26 61 15 25 38 65 51 90 14 25 31 54 37 65 14 27 39 54 48 55 4 0 10
-10 12 -22z m-640 -4637 c5 -7 -80 -51 -100 -51 -13 0 73 58 88 59 4 1 9 -3
12 -8z"/>
<path d="M6458 7838 c-2 -59 0 -99 4 -103 2 -1 18 -6 37 -10 l34 -7 -8 58 c-8
71 -24 108 -48 112 -14 3 -17 -5 -19 -50z"/>
<path d="M6734 7695 c1 -36 5 -45 19 -45 9 0 17 -4 17 -10 0 -5 7 -10 15 -10
8 0 15 5 15 10 0 6 -6 10 -13 10 -8 0 -20 18 -27 41 -19 55 -28 57 -26 4z"/>
<path d="M6394 7699 c-21 -10 -49 -18 -61 -19 -13 0 -23 -6 -23 -14 0 -10 7
-12 22 -8 14 3 19 1 14 -6 -3 -6 2 -13 11 -15 10 -3 3 -5 -14 -6 l-33 -1 0
-108 c0 -96 2 -111 20 -127 18 -16 25 -17 62 -5 48 14 97 50 116 87 14 25 13
25 -20 18 l-33 -7 38 27 c20 14 37 32 37 40 0 8 -25 27 -55 43 l-55 27 30 12
c26 10 30 9 30 -6 0 -19 75 -60 86 -48 7 7 -46 71 -61 74 -5 1 -12 12 -15 24
-8 33 -49 40 -96 18z m41 -19 c3 -5 -1 -10 -9 -10 -8 0 -18 5 -21 10 -3 6 1
10 9 10 8 0 18 -4 21 -10z"/>
<path d="M6693 7693 c-17 -6 -16 -23 1 -23 8 0 16 7 20 15 6 15 1 17 -21 8z"/>
<path d="M4605 6174 c-28 -25 -90 -82 -140 -126 -49 -45 -97 -88 -105 -97 -29
-30 -205 -196 -315 -296 -391 -357 -503 -472 -604 -625 l-59 -87 42 20 c64 30
998 962 1097 1095 15 20 51 57 79 82 50 43 79 80 63 80 -5 0 -31 -21 -58 -46z"/>
<path d="M4215 5049 c-62 -38 -143 -75 -215 -100 -30 -11 -86 -33 -125 -51
-38 -17 -83 -36 -100 -43 -16 -6 -41 -17 -55 -23 l-25 -11 25 0 c14 -1 53 6
85 15 33 8 84 19 113 24 63 11 288 108 338 147 23 17 34 33 32 46 -4 30 -18
29 -73 -4z"/>
<path d="M2375 4560 c-8 -26 41 -74 68 -66 16 4 18 1 12 -17 -4 -12 -9 -33
-12 -47 -4 -24 -3 -24 26 8 17 18 31 43 31 57 0 28 -31 49 -59 40 -13 -4 -25
3 -39 20 -20 25 -21 25 -27 5z"/>
<path d="M4682 2689 c-146 -31 -184 -42 -108 -33 33 4 46 2 41 -5 -3 -6 -12
-11 -19 -11 -23 0 -201 -62 -211 -73 -5 -7 -19 -13 -29 -15 -28 -5 -176 -83
-176 -93 0 -4 -9 -10 -19 -14 -23 -7 -136 -116 -169 -162 -19 -27 -20 -32 -6
-37 8 -3 12 -11 8 -17 -4 -8 -3 -9 5 -5 6 4 9 12 6 17 -4 5 3 9 14 9 11 0 26
8 33 18 7 10 29 29 48 42 19 13 67 51 106 85 67 56 100 77 164 102 119 48 134
52 141 42 8 -13 95 24 102 43 3 10 9 11 26 1 11 -7 23 -13 26 -13 3 0 5 6 5
13 0 19 129 71 180 71 25 0 52 -2 60 -5 8 -3 12 -4 8 -2 -14 8 -9 23 7 23 8 0
15 -4 15 -10 0 -15 28 -12 37 3 4 8 28 18 53 24 44 10 45 11 10 12 -19 0 -64
-4 -100 -9 -154 -24 -153 -24 -146 -11 4 6 11 9 16 6 4 -3 23 2 41 10 27 11
29 14 12 15 -12 0 -27 2 -35 4 -7 2 -73 -9 -146 -25z"/>
<path d="M4539 2705 c-3 -2 -24 -7 -48 -10 -23 -3 -52 -11 -64 -17 -12 -7 -26
-13 -32 -14 -5 -1 -27 -8 -47 -18 -21 -9 -42 -16 -48 -16 -6 0 -21 -5 -33 -12
-12 -7 -28 -13 -36 -14 -8 -2 -28 -12 -44 -24 -16 -12 -43 -24 -60 -27 -18 -2
-52 -13 -76 -24 -38 -17 -42 -22 -37 -44 6 -25 -8 -36 -17 -12 -3 7 -7 5 -12
-8 -5 -11 -17 -30 -28 -42 -11 -13 -15 -23 -9 -23 7 0 12 4 12 8 0 5 19 17 43
27 23 10 56 29 73 42 17 12 34 23 38 23 4 0 19 9 33 20 14 11 33 20 43 20 9 0
44 13 76 30 32 16 65 30 72 30 8 0 26 8 40 19 32 22 116 61 134 61 7 1 27 7
43 15 25 11 26 14 9 14 -11 1 -23 -1 -25 -4z"/>
<path d="M4280 2654 l-25 -15 25 7 c14 3 32 10 40 15 13 7 13 8 0 8 -8 0 -26
-6 -40 -15z"/>
<path d="M4415 2630 c-8 -13 5 -13 25 0 13 8 13 10 -2 10 -9 0 -20 -4 -23 -10z"/>
<path d="M4858 2633 c6 -2 18 -2 25 0 6 3 1 5 -13 5 -14 0 -19 -2 -12 -5z"/>
<path d="M4148 2603 c7 -3 16 -2 19 1 4 3 -2 6 -13 5 -11 0 -14 -3 -6 -6z"/>
<path d="M4105 2590 c-3 -5 -2 -10 4 -10 5 0 13 5 16 10 3 6 2 10 -4 10 -5 0
-13 -4 -16 -10z"/>
<path d="M3880 2574 c-14 -7 -67 -32 -117 -55 -51 -23 -93 -46 -93 -50 0 -5
31 7 69 26 37 19 77 35 87 35 16 0 94 47 94 56 0 7 -14 2 -40 -12z"/>
<path d="M6900 2426 c0 -3 14 -12 30 -21 17 -9 30 -13 30 -11 0 3 -13 12 -30
21 -16 9 -30 13 -30 11z"/>
<path d="M3883 2393 c-7 -2 -13 -11 -13 -19 0 -8 -8 -17 -17 -21 -28 -10 -163
-123 -163 -136 0 -11 108 65 156 109 65 62 77 84 37 67z"/>
<path d="M7210 2281 c0 -5 5 -13 10 -16 6 -3 10 -2 10 4 0 5 -4 13 -10 16 -5
3 -10 2 -10 -4z"/>
<path d="M3948 2228 c-16 -13 -31 -58 -20 -58 9 1 52 37 52 44 0 3 -8 2 -17
-1 -16 -6 -16 -5 -4 10 16 20 11 22 -11 5z"/>
</g>
</svg>
